<svg width="100" height="100" viewBox="0 0 100 100" xmlns="http://www.w3.org/2000/svg">
  <!-- Background circle -->
  <circle cx="50" cy="50" r="45" fill="#FFF3E0" stroke="#FF9800" stroke-width="2" />
  
  <!-- Lightbulb -->
  <path d="M50,20 C40,20 32,28 32,38 C32,44 35,49 40,52 L40,65 L60,65 L60,52 C65,49 68,44 68,38 C68,28 60,20 50,20 Z" fill="#FFE0B2" stroke="#FF9800" stroke-width="2" />
  
  <!-- Lightbulb base -->
  <rect x="40" y="65" width="20" height="5" fill="#FF9800" />
  <rect x="42" y="70" width="16" height="5" fill="#FF9800" />
  
  <!-- Light rays -->
  <line x1="50" y1="10" x2="50" y2="15" stroke="#FF9800" stroke-width="2" />
  <line x1="30" y1="30" x2="25" y2="25" stroke="#FF9800" stroke-width="2" />
  <line x1="70" y1="30" x2="75" y2="25" stroke="#FF9800" stroke-width="2" />
  <line x1="25" y1="50" x2="20" y2="50" stroke="#FF9800" stroke-width="2" />
  <line x1="75" y1="50" x2="80" y2="50" stroke="#FF9800" stroke-width="2" />
  
  <!-- Feng Shui element symbols inside bulb -->
  <path d="M45,40 L55,40 L50,30 Z" fill="#FF9800" /> <!-- Fire triangle -->
  <circle cx="50" cy="50" r="3" fill="#FF9800" /> <!-- Earth circle -->
</svg>